<svg xmlns="http://www.w3.org/2000/svg" viewBox="0 0 778 784" width="778" height="784"><rect width="778" height="784" fill="#f4f1ea"/><text x="24" y="30" font-family="system-ui,sans-serif" font-size="13" fill="#1a1a1a" font-weight="500">gov emotion suite</text><g transform="translate(34.0,46)"><g transform="scale(0.5625)"><rect x="0" y="0" width="160" height="160" rx="6" fill="#1a1a1a"/><rect x="22" y="55" width="52" height="10" transform="rotate(18 48 60)" fill="#fafafa"/><rect x="86" y="55" width="52" height="10" transform="rotate(-18 112 60)" fill="#fafafa"/><circle cx="55" cy="92" r="6" fill="#fafafa"/><circle cx="105" cy="92" r="6" fill="#fafafa"/><rect x="50" y="122" width="60" height="7" fill="#fafafa"/></g></g><text x="79.0" y="154" font-family="system-ui,sans-serif" font-size="10" fill="#3a3a3a" text-anchor="middle">default</text><g transform="translate(158.0,46)"><g transform="scale(0.5625)"><rect x="0" y="0" width="160" height="160" rx="6" fill="#1a1a1a"/><rect x="22" y="50" width="52" height="11" transform="rotate(28 48 56)" fill="#fafafa"/><rect x="86" y="50" width="52" height="11" transform="rotate(-28 112 56)" fill="#fafafa"/><circle cx="55" cy="92" r="3.5" fill="#fafafa"/><circle cx="105" cy="92" r="3.5" fill="#fafafa"/><path d="M 48 132 Q 80 118 112 132" stroke="#fafafa" stroke-width="7" fill="none" stroke-linecap="butt"/><rect x="20" y="20" width="4" height="14" fill="#fafafa"/><rect x="14" y="34" width="14" height="4" fill="#fafafa"/></g></g><text x="203.0" y="154" font-family="system-ui,sans-serif" font-size="10" fill="#3a3a3a" text-anchor="middle">furious</text><g transform="translate(282.0,46)"><g transform="scale(0.5625)"><rect x="0" y="0" width="160" height="160" rx="6" fill="#1a1a1a"/><rect x="22" y="55" width="52" height="10" transform="rotate(18 48 60)" fill="#fafafa"/><rect x="86" y="55" width="52" height="10" transform="rotate(-18 112 60)" fill="#fafafa"/><rect x="44" y="90" width="22" height="5" fill="#fafafa"/><rect x="94" y="90" width="22" height="5" fill="#fafafa"/><rect x="50" y="122" width="60" height="7" fill="#fafafa"/></g></g><text x="327.0" y="154" font-family="system-ui,sans-serif" font-size="10" fill="#3a3a3a" text-anchor="middle">disapproving</text><g transform="translate(406.0,46)"><g transform="scale(0.5625)"><rect x="0" y="0" width="160" height="160" rx="6" fill="#1a1a1a"/><rect x="32" y="60" width="40" height="8" fill="#fafafa"/><rect x="88" y="60" width="40" height="8" fill="#fafafa"/><rect x="44" y="90" width="22" height="5" fill="#fafafa"/><rect x="94" y="90" width="22" height="5" fill="#fafafa"/><rect x="50" y="122" width="60" height="7" fill="#fafafa"/></g></g><text x="451.0" y="154" font-family="system-ui,sans-serif" font-size="10" fill="#3a3a3a" text-anchor="middle">unimpressed</text><g transform="translate(530.0,46)"><g transform="scale(0.5625)"><rect x="0" y="0" width="160" height="160" rx="6" fill="#1a1a1a"/><rect x="22" y="60" width="52" height="9" transform="rotate(18 48 64)" fill="#fafafa"/><rect x="86" y="60" width="52" height="9" transform="rotate(15 112 64)" fill="#fafafa"/><circle cx="55" cy="92" r="6" fill="#fafafa"/><circle cx="105" cy="92" r="6" fill="#fafafa"/><path d="M 50 128 Q 70 128 90 122 Q 100 118 110 116" stroke="#fafafa" stroke-width="6" fill="none" stroke-linecap="butt"/></g></g><text x="575.0" y="154" font-family="system-ui,sans-serif" font-size="10" fill="#3a3a3a" text-anchor="middle">sceptical</text><g transform="translate(654.0,46)"><g transform="scale(0.5625)"><rect x="0" y="0" width="160" height="160" rx="6" fill="#1a1a1a"/><rect x="22" y="60" width="52" height="9" transform="rotate(18 48 64)" fill="#fafafa"/><rect x="86" y="60" width="52" height="9" transform="rotate(15 112 64)" fill="#fafafa"/><circle cx="55" cy="92" r="6" fill="#fafafa"/><circle cx="105" cy="92" r="6" fill="#fafafa"/><path d="M 50 128 Q 70 128 90 122 Q 100 118 110 116" stroke="#fafafa" stroke-width="6" fill="none" stroke-linecap="butt"/></g></g><text x="699.0" y="154" font-family="system-ui,sans-serif" font-size="10" fill="#3a3a3a" text-anchor="middle">smug</text><g transform="translate(34.0,190)"><g transform="scale(0.5625)"><rect x="0" y="0" width="160" height="160" rx="6" fill="#1a1a1a"/><rect x="22" y="60" width="52" height="9" transform="rotate(-18 48 64)" fill="#fafafa"/><rect x="86" y="60" width="52" height="9" transform="rotate(18 112 64)" fill="#fafafa"/><circle cx="55" cy="92" r="9" fill="#fafafa"/><circle cx="105" cy="92" r="9" fill="#fafafa"/><circle cx="55" cy="92" r="3" fill="#1a1a1a"/><circle cx="105" cy="92" r="3" fill="#1a1a1a"/><circle cx="80" cy="128" r="9" fill="#fafafa"/></g></g><text x="79.0" y="298" font-family="system-ui,sans-serif" font-size="10" fill="#3a3a3a" text-anchor="middle">surprised</text><g transform="translate(158.0,190)"><g transform="scale(0.5625)"><rect x="0" y="0" width="160" height="160" rx="6" fill="#1a1a1a"/><rect x="22" y="60" width="52" height="9" transform="rotate(-18 48 64)" fill="#fafafa"/><rect x="86" y="60" width="52" height="9" transform="rotate(18 112 64)" fill="#fafafa"/><circle cx="55" cy="92" r="9" fill="#fafafa"/><circle cx="105" cy="92" r="9" fill="#fafafa"/><circle cx="55" cy="92" r="3" fill="#1a1a1a"/><circle cx="105" cy="92" r="3" fill="#1a1a1a"/><circle cx="80" cy="128" r="9" fill="#fafafa"/><rect x="135" y="20" width="6" height="22" fill="#fafafa"/><rect x="135" y="46" width="6" height="6" fill="#fafafa"/></g></g><text x="203.0" y="298" font-family="system-ui,sans-serif" font-size="10" fill="#3a3a3a" text-anchor="middle">shocked</text><g transform="translate(282.0,190)"><g transform="scale(0.5625)"><rect x="0" y="0" width="160" height="160" rx="6" fill="#1a1a1a"/><rect x="22" y="62" width="52" height="9" fill="#fafafa"/><rect x="86" y="55" width="52" height="9" transform="rotate(-12 112 60)" fill="#fafafa"/><circle cx="55" cy="92" r="8" fill="none" stroke="#fafafa" stroke-width="2"/><circle cx="55" cy="92" r="3" fill="#fafafa"/><circle cx="105" cy="92" r="8" fill="none" stroke="#fafafa" stroke-width="2"/><circle cx="105" cy="92" r="3" fill="#fafafa"/><path d="M 50 128 Q 60 120 70 128 T 90 128 T 110 128" stroke="#fafafa" stroke-width="5" fill="none"/></g></g><text x="327.0" y="298" font-family="system-ui,sans-serif" font-size="10" fill="#3a3a3a" text-anchor="middle">confused</text><g transform="translate(406.0,190)"><g transform="scale(0.5625)"><rect x="0" y="0" width="160" height="160" rx="6" fill="#1a1a1a"/><rect x="22" y="62" width="52" height="9" fill="#fafafa"/><rect x="86" y="55" width="52" height="9" transform="rotate(-12 112 60)" fill="#fafafa"/><circle cx="55" cy="92" r="6" fill="#fafafa"/><circle cx="105" cy="92" r="6" fill="#fafafa"/><path d="M 50 128 Q 60 120 70 128 T 90 128 T 110 128" stroke="#fafafa" stroke-width="5" fill="none"/><path d="M 128 22 Q 142 22 142 30 Q 142 36 135 40 L 135 46" stroke="#fafafa" stroke-width="4" fill="none"/><rect x="133" y="50" width="5" height="5" fill="#fafafa"/></g></g><text x="451.0" y="298" font-family="system-ui,sans-serif" font-size="10" fill="#3a3a3a" text-anchor="middle">questioning</text><g transform="translate(530.0,190)"><g transform="scale(0.5625)"><rect x="0" y="0" width="160" height="160" rx="6" fill="#1a1a1a"/><rect x="22" y="62" width="52" height="9" fill="#fafafa"/><rect x="86" y="55" width="52" height="9" transform="rotate(-12 112 60)" fill="#fafafa"/><circle cx="55" cy="92" r="8" fill="#fafafa"/><circle cx="105" cy="92" r="8" fill="#fafafa"/><circle cx="55" cy="88" r="3" fill="#1a1a1a"/><circle cx="105" cy="88" r="3" fill="#1a1a1a"/><circle cx="80" cy="128" r="3.5" fill="#fafafa"/></g></g><text x="575.0" y="298" font-family="system-ui,sans-serif" font-size="10" fill="#3a3a3a" text-anchor="middle">thinking</text><g transform="translate(654.0,190)"><g transform="scale(0.5625)"><rect x="0" y="0" width="160" height="160" rx="6" fill="#1a1a1a"/><rect x="22" y="55" width="52" height="10" transform="rotate(18 48 60)" fill="#fafafa"/><rect x="86" y="55" width="52" height="10" transform="rotate(-18 112 60)" fill="#fafafa"/><circle cx="55" cy="92" r="8" fill="#fafafa"/><circle cx="105" cy="92" r="8" fill="#fafafa"/><circle cx="59" cy="92" r="3" fill="#1a1a1a"/><circle cx="109" cy="92" r="3" fill="#1a1a1a"/><rect x="60" y="124" width="40" height="6" fill="#fafafa"/></g></g><text x="699.0" y="298" font-family="system-ui,sans-serif" font-size="10" fill="#3a3a3a" text-anchor="middle">side eye</text><g transform="translate(34.0,334)"><g transform="scale(0.5625)"><rect x="0" y="0" width="160" height="160" rx="6" fill="#1a1a1a"/><rect x="22" y="62" width="52" height="9" transform="rotate(-18 48 66)" fill="#fafafa"/><rect x="86" y="62" width="52" height="9" transform="rotate(18 112 66)" fill="#fafafa"/><circle cx="55" cy="92" r="6" fill="#fafafa"/><circle cx="105" cy="92" r="6" fill="#fafafa"/><path d="M 50 128 Q 60 120 70 128 T 90 128 T 110 128" stroke="#fafafa" stroke-width="5" fill="none"/><path d="M 130 35 Q 138 50 130 55 Q 122 50 130 35 Z" fill="#fafafa"/></g></g><text x="79.0" y="442" font-family="system-ui,sans-serif" font-size="10" fill="#3a3a3a" text-anchor="middle">worried</text><g transform="translate(158.0,334)"><g transform="scale(0.5625)"><rect x="0" y="0" width="160" height="160" rx="6" fill="#1a1a1a"/><rect x="22" y="66" width="52" height="9" transform="rotate(-14 48 70)" fill="#fafafa"/><rect x="86" y="66" width="52" height="9" transform="rotate(14 112 70)" fill="#fafafa"/><circle cx="55" cy="92" r="6" fill="#fafafa"/><circle cx="105" cy="92" r="6" fill="#fafafa"/><path d="M 48 132 Q 80 118 112 132" stroke="#fafafa" stroke-width="7" fill="none" stroke-linecap="butt"/></g></g><text x="203.0" y="442" font-family="system-ui,sans-serif" font-size="10" fill="#3a3a3a" text-anchor="middle">sad</text><g transform="translate(282.0,334)"><g transform="scale(0.5625)"><rect x="0" y="0" width="160" height="160" rx="6" fill="#1a1a1a"/><rect x="22" y="66" width="52" height="9" transform="rotate(-14 48 70)" fill="#fafafa"/><rect x="86" y="66" width="52" height="9" transform="rotate(14 112 70)" fill="#fafafa"/><path d="M 44 92 Q 55 86 66 92" stroke="#fafafa" stroke-width="4" fill="none" stroke-linecap="butt"/><path d="M 94 92 Q 105 86 116 92" stroke="#fafafa" stroke-width="4" fill="none" stroke-linecap="butt"/><rect x="50" y="122" width="60" height="7" fill="#fafafa"/></g></g><text x="327.0" y="442" font-family="system-ui,sans-serif" font-size="10" fill="#3a3a3a" text-anchor="middle">resigned</text><g transform="translate(406.0,334)"><g transform="scale(0.5625)"><rect x="0" y="0" width="160" height="160" rx="6" fill="#1a1a1a"/><rect x="32" y="60" width="40" height="8" fill="#fafafa"/><rect x="88" y="60" width="40" height="8" fill="#fafafa"/><path d="M 44 92 Q 55 86 66 92" stroke="#fafafa" stroke-width="4" fill="none" stroke-linecap="butt"/><path d="M 94 92 Q 105 86 116 92" stroke="#fafafa" stroke-width="4" fill="none" stroke-linecap="butt"/><circle cx="80" cy="128" r="3.5" fill="#fafafa"/><rect x="118" y="34" width="14" height="3" fill="#fafafa"/><rect x="124" y="48" width="3" height="14" transform="rotate(45 125.5 55)" fill="#fafafa"/><rect x="118" y="62" width="14" height="3" fill="#fafafa"/></g></g><text x="451.0" y="442" font-family="system-ui,sans-serif" font-size="10" fill="#3a3a3a" text-anchor="middle">asleep</text><g transform="translate(530.0,334)"><g transform="scale(0.5625)"><rect x="0" y="0" width="160" height="160" rx="6" fill="#1a1a1a"/><rect x="32" y="60" width="40" height="8" fill="#fafafa"/><rect x="88" y="60" width="40" height="8" fill="#fafafa"/><rect x="46" y="86" width="20" height="4" transform="rotate(45 56 88)" fill="#fafafa"/><rect x="46" y="86" width="20" height="4" transform="rotate(-45 56 88)" fill="#fafafa"/><rect x="96" y="86" width="20" height="4" transform="rotate(45 106 88)" fill="#fafafa"/><rect x="96" y="86" width="20" height="4" transform="rotate(-45 106 88)" fill="#fafafa"/><rect x="50" y="122" width="60" height="7" fill="#fafafa"/></g></g><text x="575.0" y="442" font-family="system-ui,sans-serif" font-size="10" fill="#3a3a3a" text-anchor="middle">dead inside</text><g transform="translate(654.0,334)"><g transform="scale(0.5625)"><rect x="0" y="0" width="160" height="160" rx="6" fill="#1a1a1a"/><rect x="32" y="60" width="40" height="8" fill="#fafafa"/><rect x="88" y="60" width="40" height="8" fill="#fafafa"/><path d="M 44 92 Q 55 86 66 92" stroke="#fafafa" stroke-width="4" fill="none" stroke-linecap="butt"/><path d="M 94 92 Q 105 86 116 92" stroke="#fafafa" stroke-width="4" fill="none" stroke-linecap="butt"/><path d="M 48 120 Q 80 138 112 120" stroke="#fafafa" stroke-width="7" fill="none" stroke-linecap="butt"/></g></g><text x="699.0" y="442" font-family="system-ui,sans-serif" font-size="10" fill="#3a3a3a" text-anchor="middle">pleased</text><g transform="translate(34.0,478)"><g transform="scale(0.5625)"><rect x="0" y="0" width="160" height="160" rx="6" fill="#1a1a1a"/><rect x="22" y="60" width="52" height="9" transform="rotate(-18 48 64)" fill="#fafafa"/><rect x="86" y="60" width="52" height="9" transform="rotate(18 112 64)" fill="#fafafa"/><circle cx="55" cy="92" r="6" fill="#fafafa"/><circle cx="105" cy="92" r="6" fill="#fafafa"/><path d="M 48 120 Q 80 138 112 120" stroke="#fafafa" stroke-width="7" fill="none" stroke-linecap="butt"/></g></g><text x="79.0" y="586" font-family="system-ui,sans-serif" font-size="10" fill="#3a3a3a" text-anchor="middle">smiling</text><g transform="translate(158.0,478)"><g transform="scale(0.5625)"><rect x="0" y="0" width="160" height="160" rx="6" fill="#1a1a1a"/><rect x="22" y="60" width="52" height="9" transform="rotate(18 48 64)" fill="#fafafa"/><rect x="86" y="60" width="52" height="9" transform="rotate(15 112 64)" fill="#fafafa"/><path d="M 44 92 Q 55 86 66 92" stroke="#fafafa" stroke-width="4" fill="none"/><circle cx="105" cy="92" r="6" fill="#fafafa"/><rect x="50" y="120" width="60" height="14" fill="#fafafa"/><rect x="68" y="130" width="14" height="10" fill="#fafafa"/></g></g><text x="203.0" y="586" font-family="system-ui,sans-serif" font-size="10" fill="#3a3a3a" text-anchor="middle">cheeky</text><g transform="translate(282.0,478)"><g transform="scale(0.5625)"><rect x="0" y="0" width="160" height="160" rx="6" fill="#1a1a1a"/><rect x="22" y="55" width="52" height="10" transform="rotate(18 48 60)" fill="#fafafa"/><rect x="86" y="55" width="52" height="10" transform="rotate(-18 112 60)" fill="#fafafa"/><circle cx="55" cy="92" r="3.5" fill="#fafafa"/><circle cx="105" cy="92" r="3.5" fill="#fafafa"/><rect x="42" y="120" width="76" height="14" fill="#fafafa"/><rect x="55" y="120" width="2" height="14" fill="#1a1a1a"/><rect x="68" y="120" width="2" height="14" fill="#1a1a1a"/><rect x="81" y="120" width="2" height="14" fill="#1a1a1a"/><rect x="94" y="120" width="2" height="14" fill="#1a1a1a"/><rect x="107" y="120" width="2" height="14" fill="#1a1a1a"/></g></g><text x="327.0" y="586" font-family="system-ui,sans-serif" font-size="10" fill="#3a3a3a" text-anchor="middle">grinning</text><g transform="translate(406.0,478)"><g transform="scale(0.5625)"><rect x="0" y="0" width="160" height="160" rx="6" fill="#1a1a1a"/><rect x="32" y="60" width="40" height="8" fill="#fafafa"/><rect x="88" y="60" width="40" height="8" fill="#fafafa"/><circle cx="55" cy="92" r="6" fill="#fafafa"/><circle cx="105" cy="92" r="6" fill="#fafafa"/><rect x="46" y="126" width="68" height="4" fill="#fafafa"/><rect x="50" y="122" width="3" height="12" fill="#fafafa"/><rect x="58" y="122" width="3" height="12" fill="#fafafa"/><rect x="66" y="122" width="3" height="12" fill="#fafafa"/><rect x="74" y="122" width="3" height="12" fill="#fafafa"/><rect x="82" y="122" width="3" height="12" fill="#fafafa"/><rect x="90" y="122" width="3" height="12" fill="#fafafa"/><rect x="98" y="122" width="3" height="12" fill="#fafafa"/><rect x="106" y="122" width="3" height="12" fill="#fafafa"/></g></g><text x="451.0" y="586" font-family="system-ui,sans-serif" font-size="10" fill="#3a3a3a" text-anchor="middle">silenced</text><g transform="translate(530.0,478)"><g transform="scale(0.5625)"><rect x="0" y="0" width="160" height="160" rx="6" fill="#1a1a1a"/><rect x="22" y="60" width="52" height="9" transform="rotate(-18 48 64)" fill="#fafafa"/><rect x="86" y="60" width="52" height="9" transform="rotate(18 112 64)" fill="#fafafa"/><rect x="51" y="84" width="3" height="16" fill="#fafafa"/><rect x="48" y="90" width="9" height="3" fill="#fafafa"/><rect x="46" y="98" width="14" height="3" fill="#fafafa"/><rect x="101" y="84" width="3" height="16" fill="#fafafa"/><rect x="98" y="90" width="9" height="3" fill="#fafafa"/><rect x="96" y="98" width="14" height="3" fill="#fafafa"/><path d="M 48 120 Q 80 138 112 120" stroke="#fafafa" stroke-width="7" fill="none" stroke-linecap="butt"/></g></g><text x="575.0" y="586" font-family="system-ui,sans-serif" font-size="10" fill="#3a3a3a" text-anchor="middle">greedy</text><g transform="translate(654.0,478)"><g transform="scale(0.5625)"><rect x="0" y="0" width="160" height="160" rx="6" fill="#1a1a1a"/><rect x="22" y="60" width="52" height="9" transform="rotate(-18 48 64)" fill="#fafafa"/><rect x="86" y="60" width="52" height="9" transform="rotate(18 112 64)" fill="#fafafa"/><circle cx="52" cy="90" r="4" fill="#fafafa"/><circle cx="58" cy="90" r="4" fill="#fafafa"/><polygon points="49,92 61,92 55,100" fill="#fafafa"/><circle cx="102" cy="90" r="4" fill="#fafafa"/><circle cx="108" cy="90" r="4" fill="#fafafa"/><polygon points="99,92 111,92 105,100" fill="#fafafa"/><path d="M 48 120 Q 80 138 112 120" stroke="#fafafa" stroke-width="7" fill="none" stroke-linecap="butt"/></g></g><text x="699.0" y="586" font-family="system-ui,sans-serif" font-size="10" fill="#3a3a3a" text-anchor="middle">lovestruck</text><g transform="translate(34.0,622)"><g transform="scale(0.5625)"><rect x="0" y="0" width="160" height="160" rx="6" fill="#1a1a1a"/><rect x="22" y="56" width="116" height="11" fill="#fafafa"/><circle cx="55" cy="92" r="6" fill="#fafafa"/><circle cx="105" cy="92" r="6" fill="#fafafa"/><path d="M 48 132 Q 80 118 112 132" stroke="#fafafa" stroke-width="7" fill="none" stroke-linecap="butt"/></g></g><text x="79.0" y="730" font-family="system-ui,sans-serif" font-size="10" fill="#3a3a3a" text-anchor="middle">unibrow rage</text><g transform="translate(158.0,622)"><g transform="scale(0.5625)"><rect x="0" y="0" width="160" height="160" rx="6" fill="#1a1a1a"/><rect x="22" y="60" width="52" height="9" transform="rotate(-18 48 64)" fill="#fafafa"/><rect x="86" y="60" width="52" height="9" transform="rotate(18 112 64)" fill="#fafafa"/><circle cx="55" cy="92" r="6" fill="#fafafa"/><circle cx="105" cy="92" r="6" fill="#fafafa"/><circle cx="80" cy="128" r="5" fill="#fafafa"/></g></g><text x="203.0" y="730" font-family="system-ui,sans-serif" font-size="10" fill="#3a3a3a" text-anchor="middle">speechless</text></svg>